<svg 
 xmlns="http://www.w3.org/2000/svg"
 xmlns:xlink="http://www.w3.org/1999/xlink"
 width="3086px" height="914px">
<path fill-rule="evenodd"  fill="rgb(30, 157, 0)"
 d="M3078.299,280.271 C3073.626,295.572 3067.464,312.878 3059.808,332.189 C3052.152,351.506 3043.195,372.700 3032.944,395.773 C3022.687,418.851 3011.336,442.574 2998.879,466.940 C2976.299,513.091 2953.464,552.108 2930.367,583.997 C2913.754,606.808 2896.880,627.031 2879.756,644.665 C2862.627,662.292 2844.653,678.109 2825.840,692.110 C2807.021,706.110 2789.242,716.671 2772.507,723.804 C2755.766,730.932 2740.387,734.499 2726.374,734.499 C2714.695,734.499 2708.856,729.443 2708.856,719.332 C2708.856,711.293 2710.673,701.698 2714.307,690.554 C2717.940,679.404 2723.008,668.904 2729.504,659.054 C2736.516,649.720 2745.345,641.420 2755.997,634.164 C2769.499,624.831 2789.369,614.197 2815.607,602.275 C2800.015,576.092 2788.196,555.353 2780.145,540.052 C2772.088,524.758 2763.259,505.702 2753.646,482.885 C2732.342,432.329 2721.690,386.439 2721.690,345.217 C2721.690,313.850 2725.578,288.311 2733.356,268.605 C2740.356,251.755 2753.190,239.827 2771.857,232.826 C2786.890,226.865 2800.374,223.882 2812.302,223.882 C2829.152,223.882 2840.496,230.299 2846.330,243.132 C2852.163,255.966 2857.280,285.977 2861.691,333.161 C2866.388,383.717 2873.960,433.629 2884.399,482.885 C2886.222,490.408 2888.312,500.774 2890.664,513.996 L2892.219,513.996 C2899.225,498.702 2906.882,480.163 2915.188,458.385 C2917.783,452.162 2926.867,429.218 2942.441,389.551 C2951.264,365.700 2957.882,346.383 2962.293,331.605 L2967.355,314.883 C2974.100,288.961 2984.351,268.994 2998.108,254.993 C3006.931,246.183 3017.048,238.921 3028.466,233.215 C3039.883,227.516 3050.268,224.660 3059.614,224.660 C3076.737,224.660 3085.305,231.921 3085.305,246.438 C3085.305,253.699 3082.965,264.977 3078.299,280.271 ZM2569.632,562.997 C2535.926,588.147 2499.759,600.720 2461.131,600.720 C2435.980,600.720 2414.075,594.759 2395.408,582.831 C2376.741,570.909 2362.285,553.730 2352.046,531.302 C2341.801,508.880 2336.685,482.885 2336.685,453.329 C2336.685,425.329 2341.218,393.895 2350.296,359.022 C2359.368,324.156 2372.074,288.633 2388.408,252.466 C2404.741,216.298 2424.186,181.104 2446.742,146.881 C2470.592,109.809 2497.942,80.903 2528.798,60.158 C2550.054,45.125 2572.354,37.602 2595.688,37.602 C2619.538,37.602 2638.594,44.863 2652.855,59.380 C2667.111,73.903 2674.245,93.214 2674.245,117.325 C2674.245,134.436 2667.694,152.392 2654.605,171.187 C2641.511,189.987 2625.049,205.476 2605.216,217.660 C2585.382,229.849 2565.998,235.938 2547.076,235.938 C2537.998,235.938 2533.465,233.604 2533.465,228.938 C2533.465,225.310 2537.220,218.699 2544.743,209.104 C2557.188,193.548 2567.688,175.598 2576.243,155.242 C2584.799,134.892 2589.077,117.197 2589.077,102.158 C2589.077,88.419 2586.999,81.547 2582.855,81.547 C2577.665,81.547 2569.632,90.103 2558.743,107.214 C2547.854,124.325 2538.132,143.904 2529.576,165.937 C2509.354,218.826 2493.798,269.060 2482.909,316.633 C2472.020,364.212 2466.575,404.717 2466.575,438.162 C2466.575,463.313 2470.659,484.507 2478.826,501.746 C2486.992,518.991 2496.909,527.608 2508.576,527.608 C2523.354,527.608 2535.665,519.246 2545.521,502.524 C2555.371,485.802 2561.204,462.535 2563.021,432.718 C2556.537,434.796 2551.998,435.829 2549.410,435.829 C2540.331,435.829 2532.882,432.462 2527.048,425.718 C2521.215,418.979 2518.298,410.423 2518.298,400.051 C2518.298,379.573 2525.554,353.128 2540.076,320.716 C2554.593,288.311 2569.887,264.327 2585.966,248.771 C2597.632,237.104 2610.855,231.271 2625.633,231.271 C2637.038,231.271 2646.888,235.099 2655.189,242.743 C2663.483,250.394 2669.833,261.410 2674.245,275.799 C2678.650,290.188 2680.856,306.978 2680.856,326.161 C2680.856,374.384 2670.744,419.629 2650.522,461.885 C2630.300,504.146 2603.332,537.853 2569.632,562.997 ZM2225.461,603.831 C2185.533,603.831 2165.572,570.386 2165.572,503.496 C2165.572,496.511 2165.778,490.892 2166.199,486.623 L2164.794,485.218 C2140.683,513.480 2118.577,536.619 2098.488,554.636 C2078.393,572.659 2059.854,586.203 2042.876,595.275 C2025.892,604.347 2010.270,608.886 1996.014,608.886 C1966.975,608.886 1942.991,599.164 1924.069,579.719 C1905.141,560.275 1895.680,535.647 1895.680,505.830 C1895.680,487.424 1900.347,465.646 1909.680,440.496 C1919.013,415.351 1931.847,390.717 1948.180,366.606 C1975.403,327.200 2009.626,293.755 2050.848,266.271 C2093.365,238.016 2134.327,223.882 2173.739,223.882 C2206.922,223.882 2234.212,230.688 2255.601,244.299 C2276.990,257.910 2287.684,275.088 2287.684,295.827 C2287.684,311.128 2282.368,327.328 2271.740,344.439 C2285.740,344.439 2294.551,345.934 2298.185,348.911 C2301.812,351.895 2303.629,358.828 2303.629,369.717 C2303.629,368.684 2302.979,373.995 2301.685,385.662 C2300.129,411.329 2299.351,435.312 2299.351,457.607 C2299.351,469.274 2299.479,478.091 2299.740,484.052 C2299.995,490.019 2300.518,496.885 2301.296,504.663 C2302.073,512.441 2302.851,518.663 2303.629,523.330 C2305.701,535.519 2309.074,547.575 2313.740,559.497 C2298.185,574.797 2283.273,586.009 2269.018,593.136 C2254.756,600.264 2240.239,603.831 2225.461,603.831 ZM2189.683,396.162 L2182.294,398.495 C2163.627,403.684 2150.144,406.273 2141.849,406.273 C2131.738,406.273 2126.683,403.684 2126.683,398.495 C2126.683,396.684 2128.755,391.884 2132.905,384.106 C2147.421,362.073 2154.683,341.328 2154.683,321.883 C2154.683,310.739 2152.738,300.561 2148.849,291.355 C2144.961,282.155 2140.683,277.549 2136.016,277.549 C2131.866,277.549 2125.516,281.961 2116.960,290.772 C2092.849,316.961 2073.726,343.795 2059.598,371.273 C2045.465,398.756 2038.404,423.257 2038.404,444.773 C2038.404,459.035 2041.320,470.829 2047.154,480.163 C2052.987,489.496 2060.309,494.163 2069.126,494.163 C2076.643,494.163 2090.710,486.130 2111.321,470.051 C2131.933,453.979 2155.072,432.718 2180.739,406.273 L2191.239,397.717 L2189.683,396.162 ZM1821.790,589.442 C1807.267,628.070 1786.528,661.642 1759.567,690.165 C1739.083,711.682 1713.678,730.154 1683.344,745.582 C1653.010,761.005 1626.954,768.722 1605.176,768.722 C1587.026,768.722 1570.820,761.460 1556.565,746.944 C1542.303,732.421 1535.176,716.087 1535.176,697.943 C1535.176,685.754 1538.287,673.115 1544.509,660.026 C1550.731,646.931 1558.764,635.720 1568.620,626.387 C1588.843,605.903 1618.526,586.464 1657.677,568.053 C1664.932,564.425 1670.511,562.608 1674.399,562.608 C1675.955,562.608 1677.377,563.258 1678.677,564.553 C1679.972,565.853 1680.622,567.275 1680.622,568.830 C1680.622,570.647 1679.066,574.147 1675.955,579.331 C1668.177,592.553 1661.305,609.470 1655.344,630.081 C1649.377,650.692 1646.399,668.515 1646.399,683.554 C1646.399,701.182 1649.121,709.999 1654.566,709.999 C1657.416,709.999 1660.983,706.821 1665.260,700.471 C1669.538,694.115 1673.366,686.920 1676.739,678.887 C1698.778,622.887 1712.876,571.030 1719.037,523.312 C1719.839,516.318 1720.647,505.824 1721.456,491.829 L1710.955,499.607 C1710.178,500.385 1708.944,501.424 1707.261,502.719 C1705.572,504.019 1703.433,505.702 1700.844,507.774 C1655.988,542.775 1620.793,567.409 1595.260,581.664 C1569.720,595.925 1547.486,603.053 1528.564,603.053 C1507.564,603.053 1490.647,595.409 1477.814,580.108 C1464.980,564.814 1458.564,544.330 1458.564,518.663 C1458.564,486.774 1467.569,453.785 1485.592,419.690 C1503.608,385.601 1527.398,354.295 1556.954,325.772 C1586.510,297.255 1618.915,274.377 1654.177,257.132 C1689.433,239.893 1723.528,231.271 1756.456,231.271 C1788.862,231.271 1813.556,236.849 1830.540,247.993 C1847.518,259.144 1856.013,275.866 1856.013,298.161 C1856.013,316.827 1848.624,339.906 1833.846,367.384 C1844.473,368.161 1852.251,371.467 1857.179,377.300 C1862.101,383.134 1864.568,392.273 1864.568,404.717 C1864.568,424.940 1860.418,453.135 1852.124,489.302 C1843.823,525.469 1833.712,558.853 1821.790,589.442 ZM1739.734,408.995 C1738.178,409.518 1736.100,409.773 1733.511,409.773 C1728.583,410.296 1722.361,410.551 1714.844,410.551 C1701.622,410.551 1695.011,408.090 1695.011,403.162 C1695.011,400.573 1696.694,397.462 1700.066,393.828 C1709.916,382.684 1718.405,368.034 1725.539,349.883 C1732.667,331.739 1736.622,315.272 1737.400,300.494 C1737.400,296.866 1737.655,293.628 1738.178,290.772 C1738.433,289.739 1738.628,288.827 1738.761,288.049 C1738.889,287.272 1738.956,286.627 1738.956,286.105 C1738.956,282.477 1736.489,280.660 1731.567,280.660 C1721.456,280.660 1705.900,291.549 1684.900,313.327 C1671.677,327.328 1659.233,343.922 1647.566,363.106 C1635.899,382.295 1626.821,401.479 1620.343,420.662 C1613.860,439.851 1610.621,457.090 1610.621,472.385 C1610.621,487.424 1614.376,494.941 1621.899,494.941 C1629.154,494.941 1647.432,482.757 1676.733,458.385 C1689.819,447.096 1711.044,430.847 1740.387,409.648 L1739.734,408.995 ZM1371.063,438.162 C1353.429,455.796 1336.123,469.535 1319.145,479.385 C1302.162,489.241 1287.317,494.163 1274.617,494.163 C1268.911,494.163 1263.078,492.741 1257.117,489.885 C1259.967,505.441 1270.078,513.219 1287.450,513.219 C1306.895,513.219 1332.173,501.813 1363.285,478.996 C1381.429,465.774 1393.618,459.162 1399.841,459.162 C1407.619,459.162 1414.874,461.241 1421.619,465.385 C1428.357,469.535 1431.730,473.813 1431.730,478.218 C1431.730,482.885 1427.969,488.980 1420.452,496.496 C1406.707,510.241 1390.896,523.658 1373.007,536.747 C1355.118,549.841 1337.873,560.730 1321.284,569.414 C1304.689,578.103 1288.095,584.969 1271.506,590.025 C1254.911,595.081 1240.133,597.609 1227.172,597.609 C1194.760,597.609 1168.838,588.342 1149.393,569.803 C1129.949,551.269 1120.226,526.575 1120.226,495.718 C1120.226,472.130 1125.343,445.490 1135.588,415.801 C1145.826,386.117 1159.632,358.311 1177.005,332.383 C1197.482,302.049 1222.633,276.771 1252.450,256.549 C1289.261,232.182 1324.523,219.993 1358.229,219.993 C1382.596,219.993 1401.718,227.710 1415.591,243.132 C1429.457,258.560 1436.397,279.755 1436.397,306.716 C1436.397,327.716 1430.885,349.628 1419.869,372.439 C1408.846,395.256 1392.579,417.162 1371.063,438.162 ZM1325.562,276.771 C1317.262,276.771 1304.562,295.049 1287.450,331.605 C1277.339,353.645 1269.106,375.617 1262.756,397.523 C1256.400,419.435 1253.228,438.296 1253.228,454.107 C1253.228,459.551 1254.261,467.329 1256.339,477.440 C1268.261,469.407 1277.339,461.368 1283.562,453.329 C1297.300,436.479 1307.928,417.162 1315.451,395.384 C1321.412,381.129 1326.079,365.184 1329.451,347.550 C1332.817,329.922 1334.507,313.461 1334.507,298.161 C1334.507,283.905 1331.523,276.771 1325.562,276.771 ZM1091.448,361.161 C1085.481,373.606 1077.448,387.801 1067.337,403.745 C1057.226,419.690 1045.753,436.546 1032.920,454.301 C1020.086,472.063 1006.408,489.885 991.891,507.774 C965.963,540.702 944.058,564.814 926.168,580.108 C908.279,595.409 893.240,603.053 881.057,603.053 C858.501,603.053 842.423,589.314 832.834,561.830 C826.089,544.464 819.934,523.464 814.362,498.830 C808.783,474.202 804.445,449.246 801.334,423.968 C798.222,398.690 796.667,374.256 796.667,350.661 C796.667,317.994 799.584,290.450 805.417,268.021 C811.250,245.599 819.223,230.882 829.334,223.882 C838.406,218.699 848.001,216.104 858.112,216.104 C870.034,216.104 881.251,217.988 891.751,221.743 C902.251,225.504 910.479,231.016 916.446,238.271 C921.891,243.715 925.974,250.910 928.696,259.855 C931.419,268.799 933.229,282.410 934.141,300.688 C935.046,318.966 935.502,344.184 935.502,376.328 L935.502,396.162 L935.502,433.495 L935.502,477.440 L937.057,477.440 C941.979,466.296 946.002,457.741 949.113,451.773 C957.408,435.440 973.480,400.962 997.336,348.328 C1002.258,337.184 1011.591,316.439 1025.336,286.105 L1033.503,269.382 L1039.725,257.327 C1046.203,243.849 1051.587,234.905 1055.864,230.493 C1060.142,226.088 1065.909,223.882 1073.170,223.882 C1094.426,223.882 1105.059,247.866 1105.059,295.827 C1105.059,309.827 1104.020,321.883 1101.948,331.994 C1099.870,342.106 1096.370,351.828 1091.448,361.161 ZM418.053,708.123 C395.631,742.762 374.128,777.985 358.198,816.883 C349.168,844.049 340.545,871.189 332.504,898.164 C328.776,902.546 325.094,906.881 321.462,911.163 C320.785,911.458 320.109,911.751 319.433,912.042 C319.209,912.046 318.984,912.049 318.760,912.052 C318.309,912.339 317.859,912.625 317.409,912.910 C308.465,915.013 300.221,910.982 296.414,905.793 C280.538,884.004 275.242,840.138 263.906,812.254 C243.286,761.615 211.962,716.145 180.466,672.938 C130.786,604.046 56.111,539.631 24.921,471.858 C-1.826,412.928 -5.302,363.515 8.389,313.107 C21.913,263.190 52.605,212.279 90.345,161.674 C132.757,105.438 173.515,65.973 202.488,44.550 C222.213,29.574 236.455,22.983 241.785,20.972 C241.161,21.619 241.540,21.654 243.072,20.765 C244.828,20.090 244.276,20.033 241.785,20.972 C244.304,18.363 263.426,5.642 291.783,1.967 C327.786,-2.756 378.144,6.625 443.311,64.089 C499.478,112.893 553.804,179.534 588.772,241.416 C623.625,304.878 639.120,363.583 614.952,432.986 C581.308,528.707 480.857,609.613 418.053,708.123 ZM313.594,187.602 C207.313,187.602 121.155,274.189 121.155,381.000 C121.155,487.811 207.313,574.398 313.594,574.398 C419.875,574.398 506.032,487.811 506.032,381.000 C506.032,274.189 419.875,187.602 313.594,187.602 ZM313.594,555.000 C217.496,555.000 139.594,477.098 139.594,381.000 C139.594,284.902 217.496,207.000 313.594,207.000 C409.691,207.000 487.594,284.902 487.594,381.000 C487.594,477.098 409.691,555.000 313.594,555.000 ZM313.594,237.704 C234.846,237.704 171.008,301.860 171.008,381.000 C171.008,460.140 234.846,524.296 313.594,524.296 C392.341,524.296 456.179,460.140 456.179,381.000 C456.179,301.860 392.341,237.704 313.594,237.704 Z"/>
</svg>